name ./resultDataOpenSim/trcMotMarkerGrf/sub10/grf-13-08.mot
datacolumns 19
datarows 15
range 1.58400000 1.64000000
endheader

                time	     ground_force_vx	     ground_force_vy	     ground_force_vz	     ground_force_px	     ground_force_py	     ground_force_pz	   l_ground_force_vx	   l_ground_force_vy	   l_ground_force_vz	   l_ground_force_px	   l_ground_force_py	   l_ground_force_pz	     ground_torque_x	     ground_torque_y	     ground_torque_z	   l_ground_torque_x	   l_ground_torque_y	   l_ground_torque_z	
          1.58400000	        -18.67361665	        566.54918758	        -32.81273581	          0.85330100	          0.00000000	          0.09766074	          0.00000000	          0.00000000	          0.00000000	          0.00000000	          0.00000000	          0.00000000	          0.00000000	          3.19757212	          0.00000000	          0.00000000	          0.00000000	          0.00000000	
          1.58800000	        -15.35407531	        568.15015682	        -32.94044283	          0.85412462	          0.00000000	          0.09751151	          0.00000000	          0.00000000	          0.00000000	          0.00000000	          0.00000000	          0.00000000	          0.00000000	          3.26196496	          0.00000000	          0.00000000	          0.00000000	          0.00000000	
          1.59200000	        -12.68415778	        569.59095538	        -33.44115964	          0.85497207	          0.00000000	          0.09737289	          0.00000000	          0.00000000	          0.00000000	          0.00000000	          0.00000000	          0.00000000	          0.00000000	          3.37184737	          0.00000000	          0.00000000	          0.00000000	          0.00000000	
          1.59600000	        -10.85038964	        570.94734505	        -34.24908440	          0.85584106	          0.00000000	          0.09723735	          0.00000000	          0.00000000	          0.00000000	          0.00000000	          0.00000000	          0.00000000	          0.00000000	          3.52685598	          0.00000000	          0.00000000	          0.00000000	          0.00000000	
          1.60000000	         -9.73153922	        572.26465108	        -35.24328728	          0.85670409	          0.00000000	          0.09709809	          0.00000000	          0.00000000	          0.00000000	          0.00000000	          0.00000000	          0.00000000	          0.00000000	          3.71310054	          0.00000000	          0.00000000	          0.00000000	          0.00000000	
          1.60400000	         -8.95543279	        573.55242585	        -36.27175906	          0.85751531	          0.00000000	          0.09695289	          0.00000000	          0.00000000	          0.00000000	          0.00000000	          0.00000000	          0.00000000	          0.00000000	          3.90725984	          0.00000000	          0.00000000	          0.00000000	          0.00000000	
          1.60800000	         -8.01750642	        574.77874599	        -37.18853721	          0.85821292	          0.00000000	          0.09681113	          0.00000000	          0.00000000	          0.00000000	          0.00000000	          0.00000000	          0.00000000	          0.00000000	          4.08251586	          0.00000000	          0.00000000	          0.00000000	          0.00000000	
          1.61200000	         -6.43055322	        575.88525896	        -37.89368790	          0.85872761	          0.00000000	          0.09668755	          0.00000000	          0.00000000	          0.00000000	          0.00000000	          0.00000000	          0.00000000	          0.00000000	          4.21490598	          0.00000000	          0.00000000	          0.00000000	          0.00000000	
          1.61600000	         -3.87337344	        576.82167383	        -38.36283284	          0.85902121	          0.00000000	          0.09659735	          0.00000000	          0.00000000	          0.00000000	          0.00000000	          0.00000000	          0.00000000	          0.00000000	          4.28905777	          0.00000000	          0.00000000	          0.00000000	          0.00000000	
          1.62000000	         -0.29290191	        577.56785231	        -38.65417150	          0.85909982	          0.00000000	          0.09655074	          0.00000000	          0.00000000	          0.00000000	          0.00000000	          0.00000000	          0.00000000	          0.00000000	          4.30236445	          0.00000000	          0.00000000	          0.00000000	          0.00000000	
          1.62400000	          4.07946333	        578.12700873	        -38.89064263	          0.85901114	          0.00000000	          0.09654378	          0.00000000	          0.00000000	          0.00000000	          0.00000000	          0.00000000	          0.00000000	          0.00000000	          4.26650101	          0.00000000	          0.00000000	          0.00000000	          0.00000000	
          1.62800000	          8.79933837	        578.51319946	        -39.22355759	          0.85883010	          0.00000000	          0.09656429	          0.00000000	          0.00000000	          0.00000000	          0.00000000	          0.00000000	          0.00000000	          0.00000000	          4.20532149	          0.00000000	          0.00000000	          0.00000000	          0.00000000	
          1.63200000	         13.33665329	        578.75440115	        -39.78998631	          0.85863595	          0.00000000	          0.09659675	          0.00000000	          0.00000000	          0.00000000	          0.00000000	          0.00000000	          0.00000000	          0.00000000	          4.14907067	          0.00000000	          0.00000000	          0.00000000	          0.00000000	
          1.63600000	         17.21925652	        578.90537308	        -40.68023824	          0.85849243	          0.00000000	          0.09662454	          0.00000000	          0.00000000	          0.00000000	          0.00000000	          0.00000000	          0.00000000	          0.00000000	          4.12631001	          0.00000000	          0.00000000	          0.00000000	          0.00000000	
          1.64000000	         20.15655207	        579.05943618	        -41.92256619	          0.85843435	          0.00000000	          0.09663653	          0.00000000	          0.00000000	          0.00000000	          0.00000000	          0.00000000	          0.00000000	          0.00000000	          4.15618929	          0.00000000	          0.00000000	          0.00000000	          0.00000000	
